# MagicaVoxel @ Ephtracy

# group
o 

# material
mtllib Char09.mtl
usemtl palette

# normals
vn -1 0 0
vn 1 0 0
vn 0 0 1
vn 0 0 -1
vn 0 -1 0
vn 0 1 0

# texcoords
vt 0.0214844 0.5
vt 0.0605469 0.5
vt 0.0683594 0.5
vt 0.0839844 0.5
vt 0.107422 0.5
vt 0.111328 0.5

# verts
v -0.2 1 0.3
v -0.2 1 -0.4
v -0.2 1.1 0.3
v -0.2 1.1 -0.4
v -0.1 0 0.2
v -0.1 0 0
v -0.1 0 -0.1
v -0.1 0 -0.3
v -0.1 0.1 0.2
v -0.1 0.1 0
v -0.1 0.1 -0.1
v -0.1 0.1 -0.3
v -0.1 0.2 0.3
v -0.1 0.2 -0.4
v -0.1 0.4 0.3
v -0.1 0.4 0.1
v -0.1 0.4 -0.2
v -0.1 0.4 -0.4
v -0.1 0.7 0.3
v -0.1 0.7 0.1
v -0.1 0.7 0
v -0.1 0.7 -0.1
v -0.1 0.7 -0.2
v -0.1 0.7 -0.4
v -0.1 0.8 0.1
v -0.1 0.8 0
v -0.1 0.8 -0.1
v -0.1 0.8 -0.2
v -0.1 0.9 0.1
v -0.1 0.9 0
v -0.1 0.9 -0.1
v -0.1 0.9 -0.2
v -0.1 1 0.4
v -0.1 1 0.3
v -0.1 1 -0.4
v -0.1 1 -0.5
v -0.1 1.1 0.4
v -0.1 1.1 0.3
v -0.1 1.1 -0.4
v -0.1 1.1 -0.5
v -0.1 1.3 0.3
v -0.1 1.3 0.2
v -0.1 1.3 -0.3
v -0.1 1.3 -0.4
v -0.1 1.4 0.2
v -0.1 1.4 -0.3
v 0 0.1 0.2
v 0 0.1 0
v 0 0.1 -0.1
v 0 0.1 -0.3
v 0 0.2 0.2
v 0 0.2 0
v 0 0.2 -0.1
v 0 0.2 -0.3
v 0.1 0.4 0.4
v 0.1 0.4 0.3
v 0.1 0.4 -0.4
v 0.1 0.4 -0.5
v 0.1 0.5 0.4
v 0.1 0.5 0.3
v 0.1 0.5 -0.4
v 0.1 0.5 -0.5
v 0.1 0.7 0.4
v 0.1 0.7 0.3
v 0.1 0.7 -0.4
v 0.1 0.7 -0.5
v 0.1 0.8 0.4
v 0.1 0.8 0.3
v 0.1 0.8 -0.4
v 0.1 0.8 -0.5
v 0.1 0.9 0.4
v 0.1 0.9 0.3
v 0.1 0.9 -0.4
v 0.1 0.9 -0.5
v 0.2 0 0.2
v 0.2 0 0
v 0.2 0 -0.1
v 0.2 0 -0.3
v 0.2 0.1 0.2
v 0.2 0.1 0
v 0.2 0.1 -0.1
v 0.2 0.1 -0.3
v 0.2 0.2 0.2
v 0.2 0.2 0
v 0.2 0.2 -0.1
v 0.2 0.2 -0.3
v 0.2 0.4 0.4
v 0.2 0.4 0.3
v 0.2 0.4 -0.4
v 0.2 0.4 -0.5
v 0.2 0.5 0.4
v 0.2 0.5 0.3
v 0.2 0.5 -0.4
v 0.2 0.5 -0.5
v 0.2 0.7 0.4
v 0.2 0.7 0.3
v 0.2 0.7 -0.4
v 0.2 0.7 -0.5
v 0.2 0.8 0.4
v 0.2 0.8 0.3
v 0.2 0.8 -0.4
v 0.2 0.8 -0.5
v 0.2 0.9 0.4
v 0.2 0.9 0.3
v 0.2 0.9 -0.4
v 0.2 0.9 -0.5
v 0.3 0.2 0.3
v 0.3 0.2 -0.4
v 0.3 0.4 0.3
v 0.3 0.4 -0.4
v 0.3 0.7 0.3
v 0.3 0.7 -0.4
v 0.3 1 0.4
v 0.3 1 0.3
v 0.3 1 -0.4
v 0.3 1 -0.5
v 0.3 1.1 0.4
v 0.3 1.1 0.3
v 0.3 1.1 -0.4
v 0.3 1.1 -0.5
v 0.3 1.3 0.3
v 0.3 1.3 0.2
v 0.3 1.3 -0.3
v 0.3 1.3 -0.4
v 0.3 1.4 0.2
v 0.3 1.4 -0.3
v 0.4 1 0.3
v 0.4 1 -0.4
v 0.4 1.1 0.3
v 0.4 1.1 -0.4
v -0.1 1 0.4
v -0.1 1.1 0.4
v 0.1 0.4 0.4
v 0.1 0.5 0.4
v 0.1 0.7 0.4
v 0.1 0.8 0.4
v 0.1 0.9 0.4
v 0.2 0.4 0.4
v 0.2 0.5 0.4
v 0.2 0.7 0.4
v 0.2 0.8 0.4
v 0.2 0.9 0.4
v 0.3 1 0.4
v 0.3 1.1 0.4
v -0.2 1 0.3
v -0.2 1.1 0.3
v -0.1 0.2 0.3
v -0.1 0.4 0.3
v -0.1 0.7 0.3
v -0.1 1 0.3
v -0.1 1.1 0.3
v -0.1 1.3 0.3
v 0.1 0.4 0.3
v 0.1 0.5 0.3
v 0.1 0.7 0.3
v 0.1 0.8 0.3
v 0.1 0.9 0.3
v 0.2 0.4 0.3
v 0.2 0.5 0.3
v 0.2 0.7 0.3
v 0.2 0.8 0.3
v 0.2 0.9 0.3
v 0.3 0.2 0.3
v 0.3 0.4 0.3
v 0.3 0.7 0.3
v 0.3 1 0.3
v 0.3 1.1 0.3
v 0.3 1.3 0.3
v 0.4 1 0.3
v 0.4 1.1 0.3
v -0.1 0 0.2
v -0.1 0.1 0.2
v -0.1 1.3 0.2
v -0.1 1.4 0.2
v 0 0.1 0.2
v 0 0.2 0.2
v 0.2 0 0.2
v 0.2 0.1 0.2
v 0.2 0.2 0.2
v 0.3 1.3 0.2
v 0.3 1.4 0.2
v -0.1 0 -0.1
v -0.1 0.1 -0.1
v 0 0.1 -0.1
v 0 0.2 -0.1
v 0.2 0 -0.1
v 0.2 0.1 -0.1
v 0.2 0.2 -0.1
v -0.1 0 0
v -0.1 0.1 0
v 0 0.1 0
v 0 0.2 0
v 0.2 0 0
v 0.2 0.1 0
v 0.2 0.2 0
v -0.1 0 -0.3
v -0.1 0.1 -0.3
v -0.1 1.3 -0.3
v -0.1 1.4 -0.3
v 0 0.1 -0.3
v 0 0.2 -0.3
v 0.2 0 -0.3
v 0.2 0.1 -0.3
v 0.2 0.2 -0.3
v 0.3 1.3 -0.3
v 0.3 1.4 -0.3
v -0.2 1 -0.4
v -0.2 1.1 -0.4
v -0.1 0.2 -0.4
v -0.1 0.4 -0.4
v -0.1 0.7 -0.4
v -0.1 1 -0.4
v -0.1 1.1 -0.4
v -0.1 1.3 -0.4
v 0.1 0.4 -0.4
v 0.1 0.5 -0.4
v 0.1 0.7 -0.4
v 0.1 0.8 -0.4
v 0.1 0.9 -0.4
v 0.2 0.4 -0.4
v 0.2 0.5 -0.4
v 0.2 0.7 -0.4
v 0.2 0.8 -0.4
v 0.2 0.9 -0.4
v 0.3 0.2 -0.4
v 0.3 0.4 -0.4
v 0.3 0.7 -0.4
v 0.3 1 -0.4
v 0.3 1.1 -0.4
v 0.3 1.3 -0.4
v 0.4 1 -0.4
v 0.4 1.1 -0.4
v -0.1 1 -0.5
v -0.1 1.1 -0.5
v 0.1 0.4 -0.5
v 0.1 0.5 -0.5
v 0.1 0.7 -0.5
v 0.1 0.8 -0.5
v 0.1 0.9 -0.5
v 0.2 0.4 -0.5
v 0.2 0.5 -0.5
v 0.2 0.7 -0.5
v 0.2 0.8 -0.5
v 0.2 0.9 -0.5
v 0.3 1 -0.5
v 0.3 1.1 -0.5
v -0.1 0 0.2
v 0.2 0 0.2
v -0.1 0 0
v 0.2 0 0
v -0.1 0 -0.1
v 0.2 0 -0.1
v -0.1 0 -0.3
v 0.2 0 -0.3
v -0.1 0.2 0.3
v 0.3 0.2 0.3
v 0 0.2 0.2
v 0.2 0.2 0.2
v 0 0.2 0
v 0.2 0.2 0
v 0 0.2 -0.1
v 0.2 0.2 -0.1
v 0 0.2 -0.3
v 0.2 0.2 -0.3
v -0.1 0.2 -0.4
v 0.3 0.2 -0.4
v 0.1 0.4 0.4
v 0.2 0.4 0.4
v 0.1 0.4 0.3
v 0.2 0.4 0.3
v 0.1 0.4 -0.4
v 0.2 0.4 -0.4
v 0.1 0.4 -0.5
v 0.2 0.4 -0.5
v 0.1 0.8 0.4
v 0.2 0.8 0.4
v 0.1 0.8 0.3
v 0.2 0.8 0.3
v 0.1 0.8 -0.4
v 0.2 0.8 -0.4
v 0.1 0.8 -0.5
v 0.2 0.8 -0.5
v -0.1 1 0.4
v 0.3 1 0.4
v -0.2 1 0.3
v -0.1 1 0.3
v 0.3 1 0.3
v 0.4 1 0.3
v -0.2 1 -0.4
v -0.1 1 -0.4
v 0.3 1 -0.4
v 0.4 1 -0.4
v -0.1 1 -0.5
v 0.3 1 -0.5
v -0.1 0.1 0.2
v 0 0.1 0.2
v -0.1 0.1 0
v 0 0.1 0
v -0.1 0.1 -0.1
v 0 0.1 -0.1
v -0.1 0.1 -0.3
v 0 0.1 -0.3
v 0.1 0.7 0.4
v 0.2 0.7 0.4
v 0.1 0.7 0.3
v 0.2 0.7 0.3
v 0.1 0.7 -0.4
v 0.2 0.7 -0.4
v 0.1 0.7 -0.5
v 0.2 0.7 -0.5
v 0.1 0.9 0.4
v 0.2 0.9 0.4
v 0.1 0.9 0.3
v 0.2 0.9 0.3
v 0.1 0.9 -0.4
v 0.2 0.9 -0.4
v 0.1 0.9 -0.5
v 0.2 0.9 -0.5
v -0.1 1.1 0.4
v 0.3 1.1 0.4
v -0.2 1.1 0.3
v -0.1 1.1 0.3
v 0.3 1.1 0.3
v 0.4 1.1 0.3
v -0.2 1.1 -0.4
v -0.1 1.1 -0.4
v 0.3 1.1 -0.4
v 0.4 1.1 -0.4
v -0.1 1.1 -0.5
v 0.3 1.1 -0.5
v -0.1 1.3 0.3
v 0.3 1.3 0.3
v -0.1 1.3 0.2
v 0.3 1.3 0.2
v -0.1 1.3 -0.3
v 0.3 1.3 -0.3
v -0.1 1.3 -0.4
v 0.3 1.3 -0.4
v -0.1 1.4 0.2
v 0.3 1.4 0.2
v -0.1 1.4 -0.3
v 0.3 1.4 -0.3

# faces
f 3/6/1 2/6/1 1/6/1
f 4/6/1 2/6/1 3/6/1
f 9/2/1 6/2/1 5/2/1
f 10/2/1 6/2/1 9/2/1
f 11/2/1 8/2/1 7/2/1
f 12/2/1 8/2/1 11/2/1
f 15/5/1 14/5/1 13/5/1
f 16/5/1 14/5/1 15/5/1
f 17/5/1 14/5/1 16/5/1
f 18/5/1 14/5/1 17/5/1
f 19/6/1 16/6/1 15/6/1
f 20/1/1 17/1/1 16/1/1
f 20/6/1 16/6/1 19/6/1
f 21/1/1 17/1/1 20/1/1
f 22/1/1 17/1/1 21/1/1
f 23/6/1 18/6/1 17/6/1
f 23/1/1 17/1/1 22/1/1
f 24/6/1 18/6/1 23/6/1
f 25/4/1 20/4/1 19/4/1
f 25/4/1 21/4/1 20/4/1
f 26/3/1 22/3/1 21/3/1
f 26/4/1 21/4/1 25/4/1
f 27/4/1 24/4/1 23/4/1
f 27/3/1 22/3/1 26/3/1
f 27/4/1 23/4/1 22/4/1
f 28/4/1 24/4/1 27/4/1
f 29/4/1 25/4/1 19/4/1
f 29/2/1 26/2/1 25/2/1
f 30/4/1 27/4/1 26/4/1
f 30/2/1 26/2/1 29/2/1
f 31/2/1 28/2/1 27/2/1
f 31/4/1 27/4/1 30/4/1
f 32/4/1 24/4/1 28/4/1
f 32/2/1 28/2/1 31/2/1
f 34/4/1 31/4/1 30/4/1
f 34/4/1 30/4/1 29/4/1
f 34/4/1 32/4/1 31/4/1
f 34/4/1 29/4/1 19/4/1
f 35/4/1 24/4/1 32/4/1
f 35/4/1 32/4/1 34/4/1
f 37/6/1 34/6/1 33/6/1
f 38/6/1 34/6/1 37/6/1
f 39/6/1 36/6/1 35/6/1
f 40/6/1 36/6/1 39/6/1
f 41/6/1 39/6/1 38/6/1
f 42/6/1 39/6/1 41/6/1
f 43/6/1 39/6/1 42/6/1
f 44/6/1 39/6/1 43/6/1
f 45/6/1 43/6/1 42/6/1
f 46/6/1 43/6/1 45/6/1
f 51/5/1 48/5/1 47/5/1
f 52/5/1 48/5/1 51/5/1
f 53/5/1 50/5/1 49/5/1
f 54/5/1 50/5/1 53/5/1
f 59/4/1 56/4/1 55/4/1
f 60/4/1 56/4/1 59/4/1
f 61/4/1 58/4/1 57/4/1
f 62/4/1 58/4/1 61/4/1
f 63/1/1 60/1/1 59/1/1
f 64/1/1 60/1/1 63/1/1
f 65/1/1 62/1/1 61/1/1
f 66/1/1 62/1/1 65/1/1
f 71/4/1 68/4/1 67/4/1
f 72/4/1 68/4/1 71/4/1
f 73/4/1 70/4/1 69/4/1
f 74/4/1 70/4/1 73/4/1
f 75/2/2 76/2/2 79/2/2
f 79/2/2 76/2/2 80/2/2
f 77/2/2 78/2/2 81/2/2
f 81/2/2 78/2/2 82/2/2
f 79/5/2 80/5/2 83/5/2
f 83/5/2 80/5/2 84/5/2
f 81/5/2 82/5/2 85/5/2
f 85/5/2 82/5/2 86/5/2
f 87/4/2 88/4/2 91/4/2
f 91/4/2 88/4/2 92/4/2
f 89/4/2 90/4/2 93/4/2
f 93/4/2 90/4/2 94/4/2
f 91/1/2 92/1/2 95/1/2
f 95/1/2 92/1/2 96/1/2
f 93/1/2 94/1/2 97/1/2
f 97/1/2 94/1/2 98/1/2
f 99/4/2 100/4/2 103/4/2
f 103/4/2 100/4/2 104/4/2
f 101/4/2 102/4/2 105/4/2
f 105/4/2 102/4/2 106/4/2
f 107/5/2 108/5/2 109/5/2
f 109/5/2 108/5/2 110/5/2
f 109/6/2 110/6/2 111/6/2
f 111/6/2 110/6/2 112/6/2
f 111/4/2 112/4/2 114/4/2
f 114/4/2 112/4/2 115/4/2
f 113/6/2 114/6/2 117/6/2
f 117/6/2 114/6/2 118/6/2
f 115/6/2 116/6/2 119/6/2
f 119/6/2 116/6/2 120/6/2
f 118/6/2 119/6/2 121/6/2
f 121/6/2 119/6/2 122/6/2
f 122/6/2 119/6/2 123/6/2
f 123/6/2 119/6/2 124/6/2
f 122/6/2 123/6/2 125/6/2
f 125/6/2 123/6/2 126/6/2
f 127/6/2 128/6/2 129/6/2
f 129/6/2 128/6/2 130/6/2
f 138/4/3 134/4/3 133/4/3
f 139/1/3 135/1/3 134/1/3
f 139/4/3 134/4/3 138/4/3
f 140/1/3 135/1/3 139/1/3
f 141/4/3 137/4/3 136/4/3
f 142/4/3 137/4/3 141/4/3
f 143/6/3 132/6/3 131/6/3
f 144/6/3 132/6/3 143/6/3
f 150/6/3 146/6/3 145/6/3
f 151/6/3 146/6/3 150/6/3
f 153/6/3 149/6/3 148/6/3
f 153/5/3 148/5/3 147/5/3
f 154/6/3 149/6/3 153/6/3
f 155/4/3 150/4/3 149/4/3
f 155/6/3 149/6/3 154/6/3
f 156/4/3 150/4/3 155/4/3
f 157/4/3 150/4/3 156/4/3
f 158/5/3 153/5/3 147/5/3
f 160/4/3 156/4/3 155/4/3
f 161/4/3 156/4/3 160/4/3
f 162/4/3 150/4/3 157/4/3
f 163/5/3 158/5/3 147/5/3
f 164/6/3 159/6/3 158/6/3
f 164/5/3 158/5/3 163/5/3
f 164/6/3 160/6/3 159/6/3
f 165/4/3 161/4/3 160/4/3
f 165/6/3 160/6/3 164/6/3
f 165/4/3 162/4/3 161/4/3
f 166/4/3 150/4/3 162/4/3
f 166/4/3 162/4/3 165/4/3
f 167/6/3 152/6/3 151/6/3
f 168/6/3 152/6/3 167/6/3
f 169/6/3 167/6/3 166/6/3
f 170/6/3 167/6/3 169/6/3
f 175/2/3 172/2/3 171/2/3
f 177/2/3 175/2/3 171/2/3
f 178/5/3 176/5/3 175/5/3
f 178/2/3 175/2/3 177/2/3
f 179/5/3 176/5/3 178/5/3
f 180/6/3 174/6/3 173/6/3
f 181/6/3 174/6/3 180/6/3
f 184/2/3 183/2/3 182/2/3
f 186/2/3 184/2/3 182/2/3
f 187/5/3 185/5/3 184/5/3
f 187/2/3 184/2/3 186/2/3
f 188/5/3 185/5/3 187/5/3
f 189/2/4 190/2/4 191/2/4
f 189/2/4 191/2/4 193/2/4
f 191/5/4 192/5/4 194/5/4
f 193/2/4 191/2/4 194/2/4
f 194/5/4 192/5/4 195/5/4
f 196/2/4 197/2/4 200/2/4
f 196/2/4 200/2/4 202/2/4
f 200/5/4 201/5/4 203/5/4
f 202/2/4 200/2/4 203/2/4
f 203/5/4 201/5/4 204/5/4
f 198/6/4 199/6/4 205/6/4
f 205/6/4 199/6/4 206/6/4
f 207/6/4 208/6/4 212/6/4
f 212/6/4 208/6/4 213/6/4
f 210/6/4 211/6/4 215/6/4
f 209/5/4 210/5/4 215/5/4
f 215/6/4 211/6/4 216/6/4
f 211/4/4 212/4/4 217/4/4
f 216/6/4 211/6/4 217/6/4
f 217/4/4 212/4/4 218/4/4
f 218/4/4 212/4/4 219/4/4
f 209/5/4 215/5/4 220/5/4
f 217/4/4 218/4/4 222/4/4
f 222/4/4 218/4/4 223/4/4
f 219/4/4 212/4/4 224/4/4
f 209/5/4 220/5/4 225/5/4
f 220/6/4 221/6/4 226/6/4
f 225/5/4 220/5/4 226/5/4
f 221/6/4 222/6/4 226/6/4
f 222/4/4 223/4/4 227/4/4
f 226/6/4 222/6/4 227/6/4
f 223/4/4 224/4/4 227/4/4
f 224/4/4 212/4/4 228/4/4
f 227/4/4 224/4/4 228/4/4
f 213/6/4 214/6/4 229/6/4
f 229/6/4 214/6/4 230/6/4
f 228/6/4 229/6/4 231/6/4
f 231/6/4 229/6/4 232/6/4
f 235/4/4 236/4/4 240/4/4
f 236/1/4 237/1/4 241/1/4
f 240/4/4 236/4/4 241/4/4
f 241/1/4 237/1/4 242/1/4
f 238/4/4 239/4/4 243/4/4
f 243/4/4 239/4/4 244/4/4
f 233/6/4 234/6/4 245/6/4
f 245/6/4 234/6/4 246/6/4
f 249/2/5 248/2/5 247/2/5
f 250/2/5 248/2/5 249/2/5
f 253/2/5 252/2/5 251/2/5
f 254/2/5 252/2/5 253/2/5
f 257/5/5 256/5/5 255/5/5
f 258/5/5 256/5/5 257/5/5
f 259/5/5 257/5/5 255/5/5
f 260/5/5 256/5/5 258/5/5
f 261/5/5 259/5/5 255/5/5
f 261/5/5 260/5/5 259/5/5
f 262/5/5 256/5/5 260/5/5
f 262/5/5 260/5/5 261/5/5
f 263/5/5 261/5/5 255/5/5
f 264/5/5 256/5/5 262/5/5
f 265/5/5 263/5/5 255/5/5
f 265/5/5 264/5/5 263/5/5
f 266/5/5 256/5/5 264/5/5
f 266/5/5 264/5/5 265/5/5
f 269/4/5 268/4/5 267/4/5
f 270/4/5 268/4/5 269/4/5
f 273/4/5 272/4/5 271/4/5
f 274/4/5 272/4/5 273/4/5
f 277/4/5 276/4/5 275/4/5
f 278/4/5 276/4/5 277/4/5
f 281/4/5 280/4/5 279/4/5
f 282/4/5 280/4/5 281/4/5
f 286/6/5 284/6/5 283/6/5
f 287/6/5 284/6/5 286/6/5
f 289/6/5 286/6/5 285/6/5
f 290/6/5 286/6/5 289/6/5
f 291/6/5 288/6/5 287/6/5
f 292/6/5 288/6/5 291/6/5
f 293/6/5 291/6/5 290/6/5
f 294/6/5 291/6/5 293/6/5
f 295/2/6 296/2/6 297/2/6
f 297/2/6 296/2/6 298/2/6
f 299/2/6 300/2/6 301/2/6
f 301/2/6 300/2/6 302/2/6
f 303/1/6 304/1/6 305/1/6
f 305/1/6 304/1/6 306/1/6
f 307/1/6 308/1/6 309/1/6
f 309/1/6 308/1/6 310/1/6
f 311/4/6 312/4/6 313/4/6
f 313/4/6 312/4/6 314/4/6
f 315/4/6 316/4/6 317/4/6
f 317/4/6 316/4/6 318/4/6
f 319/6/6 320/6/6 322/6/6
f 322/6/6 320/6/6 323/6/6
f 321/6/6 322/6/6 325/6/6
f 325/6/6 322/6/6 326/6/6
f 323/6/6 324/6/6 327/6/6
f 327/6/6 324/6/6 328/6/6
f 326/6/6 327/6/6 329/6/6
f 329/6/6 327/6/6 330/6/6
f 331/6/6 332/6/6 333/6/6
f 333/6/6 332/6/6 334/6/6
f 335/6/6 336/6/6 337/6/6
f 337/6/6 336/6/6 338/6/6
f 339/6/6 340/6/6 341/6/6
f 341/6/6 340/6/6 342/6/6
